<svg class="icon-library" aria-hidden="true" xmlns="http://www.w3.org/2000/svg"><!-- Lucide 1.47.0, ISC / Feather MIT; see vendor/LUCIDE-LICENSE.txt. -->
<defs>
  <symbol id="i-play" viewBox="0 0 64 64"><g transform="scale(2.6666667)" fill="none" stroke="currentColor" stroke-width="2" stroke-linecap="round" stroke-linejoin="round"><path d="M5 5a2 2 0 0 1 3.008-1.728l11.997 6.998a2 2 0 0 1 .003 3.458l-12 7A2 2 0 0 1 5 19z" /></g></symbol>
  <symbol id="i-home" viewBox="0 0 64 64"><g transform="scale(2.6666667)" fill="none" stroke="currentColor" stroke-width="2" stroke-linecap="round" stroke-linejoin="round"><path d="M15 21v-8a1 1 0 0 0-1-1h-4a1 1 0 0 0-1 1v8" />
  <path d="M3 10a2 2 0 0 1 .709-1.528l7-6a2 2 0 0 1 2.582 0l7 6A2 2 0 0 1 21 10v9a2 2 0 0 1-2 2H5a2 2 0 0 1-2-2z" /></g></symbol>
  <symbol id="i-pause" viewBox="0 0 64 64"><g transform="scale(2.6666667)" fill="none" stroke="currentColor" stroke-width="2" stroke-linecap="round" stroke-linejoin="round"><rect x="14" y="3" width="5" height="18" rx="1" />
  <rect x="5" y="3" width="5" height="18" rx="1" /></g></symbol>
  <symbol id="i-close" viewBox="0 0 64 64"><g transform="scale(2.6666667)" fill="none" stroke="currentColor" stroke-width="2" stroke-linecap="round" stroke-linejoin="round"><path d="M18 6 6 18" />
  <path d="m6 6 12 12" /></g></symbol>
  <symbol id="i-left" viewBox="0 0 64 64"><g transform="scale(2.6666667)" fill="none" stroke="currentColor" stroke-width="2" stroke-linecap="round" stroke-linejoin="round"><path d="m12 19-7-7 7-7" />
  <path d="M19 12H5" /></g></symbol>
  <symbol id="i-right" viewBox="0 0 64 64"><g transform="scale(2.6666667)" fill="none" stroke="currentColor" stroke-width="2" stroke-linecap="round" stroke-linejoin="round"><path d="M5 12h14" />
  <path d="m12 5 7 7-7 7" /></g></symbol>
  <symbol id="i-restart" viewBox="0 0 64 64"><g transform="scale(2.6666667)" fill="none" stroke="currentColor" stroke-width="2" stroke-linecap="round" stroke-linejoin="round"><path d="M3 12a9 9 0 1 0 9-9 9.75 9.75 0 0 0-6.74 2.74L3 8" />
  <path d="M3 3v5h5" /></g></symbol>
  <symbol id="i-settings" viewBox="0 0 64 64"><g transform="scale(2.6666667)" fill="none" stroke="currentColor" stroke-width="2" stroke-linecap="round" stroke-linejoin="round"><path d="M14 17H5" />
  <path d="M19 7h-9" />
  <circle cx="17" cy="17" r="3" />
  <circle cx="7" cy="7" r="3" /></g></symbol>
  <symbol id="i-sound" viewBox="0 0 64 64"><g transform="scale(2.6666667)" fill="none" stroke="currentColor" stroke-width="2" stroke-linecap="round" stroke-linejoin="round"><path d="M11 4.702a.705.705 0 0 0-1.203-.498L6.413 7.587A1.4 1.4 0 0 1 5.416 8H3a1 1 0 0 0-1 1v6a1 1 0 0 0 1 1h2.416a1.4 1.4 0 0 1 .997.413l3.383 3.384A.705.705 0 0 0 11 19.298z" />
  <path d="M16 9a5 5 0 0 1 0 6" />
  <path d="M19.364 18.364a9 9 0 0 0 0-12.728" /></g></symbol>
  <symbol id="i-screen" viewBox="0 0 64 64"><g transform="scale(2.6666667)" fill="none" stroke="currentColor" stroke-width="2" stroke-linecap="round" stroke-linejoin="round"><path d="M8 3H5a2 2 0 0 0-2 2v3" />
  <path d="M21 8V5a2 2 0 0 0-2-2h-3" />
  <path d="M3 16v3a2 2 0 0 0 2 2h3" />
  <path d="M16 21h3a2 2 0 0 0 2-2v-3" /></g></symbol>
  <symbol id="i-phone" viewBox="0 0 64 64"><g transform="scale(2.6666667)" fill="none" stroke="currentColor" stroke-width="2" stroke-linecap="round" stroke-linejoin="round"><rect width="14" height="20" x="5" y="2" rx="2" ry="2" />
  <path d="M12 18h.01" /></g></symbol>
  <symbol id="i-pedal" viewBox="0 0 64 64"><g transform="scale(2.6666667)" fill="none" stroke="currentColor" stroke-width="2" stroke-linecap="round" stroke-linejoin="round"><path d="m17 11-5-5-5 5" />
  <path d="m17 18-5-5-5 5" /></g></symbol>
  <symbol id="i-brake" viewBox="0 0 64 64"><g transform="scale(2.6666667)" fill="none" stroke="currentColor" stroke-width="2" stroke-linecap="round" stroke-linejoin="round"><path d="M10 15V9" />
  <path d="M14 15V9" />
  <path d="M2.586 16.726A2 2 0 0 1 2 15.312V8.688a2 2 0 0 1 .586-1.414l4.688-4.688A2 2 0 0 1 8.688 2h6.624a2 2 0 0 1 1.414.586l4.688 4.688A2 2 0 0 1 22 8.688v6.624a2 2 0 0 1-.586 1.414l-4.688 4.688a2 2 0 0 1-1.414.586H8.688a2 2 0 0 1-1.414-.586z" /></g></symbol>
  <symbol id="i-zoom" viewBox="0 0 64 64"><g transform="scale(2.6666667)" fill="none" stroke="currentColor" stroke-width="2" stroke-linecap="round" stroke-linejoin="round"><circle cx="11" cy="11" r="8" />
  <line x1="21" x2="16.65" y1="21" y2="16.65" />
  <line x1="11" x2="11" y1="8" y2="14" />
  <line x1="8" x2="14" y1="11" y2="11" /></g></symbol>
  <symbol id="i-minus" viewBox="0 0 64 64"><g transform="scale(2.6666667)" fill="none" stroke="currentColor" stroke-width="2" stroke-linecap="round" stroke-linejoin="round"><circle cx="11" cy="11" r="8" />
  <line x1="21" x2="16.65" y1="21" y2="16.65" />
  <line x1="8" x2="14" y1="11" y2="11" /></g></symbol>
  <symbol id="i-paint" viewBox="0 0 64 64"><g transform="scale(2.6666667)" fill="none" stroke="currentColor" stroke-width="2" stroke-linecap="round" stroke-linejoin="round"><path d="M12 22a1 1 0 0 1 0-20 10 9 0 0 1 10 9 5 5 0 0 1-5 5h-2.25a1.75 1.75 0 0 0-1.4 2.8l.3.4a1.75 1.75 0 0 1-1.4 2.8z" />
  <circle cx="13.5" cy="6.5" r=".5" fill="currentColor" />
  <circle cx="17.5" cy="10.5" r=".5" fill="currentColor" />
  <circle cx="6.5" cy="12.5" r=".5" fill="currentColor" />
  <circle cx="8.5" cy="7.5" r=".5" fill="currentColor" /></g></symbol>
  <symbol id="i-wheel" viewBox="0 0 64 64"><g transform="scale(2.6666667)" fill="none" stroke="currentColor" stroke-width="2" stroke-linecap="round" stroke-linejoin="round">
  <circle cx="12" cy="12" r="10" />
  <path d="M6 12c0-1.7.7-3.2 1.8-4.2" />
  <circle cx="12" cy="12" r="2" />
  <path d="M18 12c0 1.7-.7 3.2-1.8 4.2" />
</g></symbol>
  <symbol id="i-spring" viewBox="0 0 64 64"><g transform="scale(2.6666667)" fill="none" stroke="currentColor" stroke-width="2" stroke-linecap="round" stroke-linejoin="round"><circle cx="12" cy="3" r="1"/><circle cx="12" cy="21" r="1"/><path d="M12 4v16m-4-14 8 3-8 3 8 3-8 3"/></g></symbol>
  <symbol id="i-wrench" viewBox="0 0 64 64"><g transform="scale(2.6666667)" fill="none" stroke="currentColor" stroke-width="2" stroke-linecap="round" stroke-linejoin="round"><path d="M14.7 6.3a1 1 0 0 0 0 1.4l1.6 1.6a1 1 0 0 0 1.4 0l3.106-3.105c.32-.322.863-.22.983.218a6 6 0 0 1-8.259 7.057l-7.91 7.91a1 1 0 0 1-2.999-3l7.91-7.91a6 6 0 0 1 7.057-8.259c.438.12.54.662.219.984z" /></g></symbol>
  <symbol id="i-star" viewBox="0 0 64 64"><g transform="scale(2.6666667)" fill="none" stroke="currentColor" stroke-width="2" stroke-linecap="round" stroke-linejoin="round"><path d="M11.525 2.295a.53.53 0 0 1 .95 0l2.31 4.679a2.123 2.123 0 0 0 1.595 1.16l5.166.756a.53.53 0 0 1 .294.904l-3.736 3.638a2.123 2.123 0 0 0-.611 1.878l.882 5.14a.53.53 0 0 1-.771.56l-4.618-2.428a2.122 2.122 0 0 0-1.973 0L6.396 21.01a.53.53 0 0 1-.77-.56l.881-5.139a2.122 2.122 0 0 0-.611-1.879L2.16 9.795a.53.53 0 0 1 .294-.906l5.165-.755a2.122 2.122 0 0 0 1.597-1.16z" /></g></symbol>
  <symbol id="i-trophy" viewBox="0 0 64 64"><g transform="scale(2.6666667)" fill="none" stroke="currentColor" stroke-width="2" stroke-linecap="round" stroke-linejoin="round"><path d="M10 14.66V17a1 1 0 0 1-1 1 2 2 0 0 0-2 2v2" />
  <path d="M14 14.66V17a1 1 0 0 0 1 1 2 2 0 0 1 2 2v2" />
  <path d="M17.916 10H19.5A2.5 2.5 0 0 0 22 7.5V5a1 1 0 0 0-1-1h-3" />
  <path d="M4 22h16" />
  <path d="M6 9a6 6 0 0 0 12 0V3a1 1 0 0 0-1-1H7a1 1 0 0 0-1 1z" />
  <path d="M6.084 10H4.5A2.5 2.5 0 0 1 2 7.5V5a1 1 0 0 1 1-1h3" /></g></symbol>
  <symbol id="i-pickup" viewBox="0 0 64 64"><g fill="none" stroke="currentColor" stroke-width="4.5" stroke-linecap="round" stroke-linejoin="round"><path d="M7 33h20l8-14h14l9 15v13H7Z" fill="#1cb7c4" stroke="#16343d"/><path d="M33 31h19l-6-9h-8Z" fill="#16343d" stroke="none"/><circle cx="18" cy="47" r="11" fill="#16343d" stroke="none"/><circle cx="48" cy="47" r="11" fill="#16343d" stroke="none"/><circle cx="18" cy="47" r="5" fill="#ffa45f" stroke="none"/><circle cx="48" cy="47" r="5" fill="#ffa45f" stroke="none"/></g></symbol>
  <symbol id="i-buggy" viewBox="0 0 64 64"><g fill="none" stroke="currentColor" stroke-width="4.5" stroke-linecap="round" stroke-linejoin="round"><path d="m9 38 10-17h26l11 17H9ZM23 22l8 16 11-16M7 39h50" stroke="#31c6c2"/><circle cx="17" cy="46" r="11" fill="#16343d" stroke="none"/><circle cx="49" cy="46" r="11" fill="#16343d" stroke="none"/><circle cx="17" cy="46" r="5" fill="#ffa45f" stroke="none"/><circle cx="49" cy="46" r="5" fill="#ffa45f" stroke="none"/></g></symbol>
  <symbol id="i-van" viewBox="0 0 64 64"><g fill="none" stroke="currentColor" stroke-width="4.5" stroke-linecap="round" stroke-linejoin="round"><path d="M8 15h37q9 0 11 13l2 17H8Z" fill="#1cb7c4" stroke="#16343d"/><path d="M14 22h13v10H14Zm19 0h13l5 10H33Z" fill="#16343d" stroke="none"/><circle cx="18" cy="47" r="11" fill="#16343d" stroke="none"/><circle cx="48" cy="47" r="11" fill="#16343d" stroke="none"/><circle cx="18" cy="47" r="5" fill="#ffa45f" stroke="none"/><circle cx="48" cy="47" r="5" fill="#ffa45f" stroke="none"/></g></symbol>
  <symbol id="i-hotrod" viewBox="0 0 64 64"><g fill="none" stroke="currentColor" stroke-width="4.5" stroke-linecap="round" stroke-linejoin="round"><path d="M6 37h8V23h19l5 13h19v11H6Z" fill="#1cb7c4" stroke="#16343d"/><path d="M20 27h9l3 8H20Z" fill="#16343d" stroke="none"/><path d="M43 36v-7h7v7" stroke="#ffa45f"/><circle cx="17" cy="47" r="12" fill="#16343d" stroke="none"/><circle cx="49" cy="47" r="10" fill="#16343d" stroke="none"/><circle cx="17" cy="47" r="5" fill="#ffa45f" stroke="none"/><circle cx="49" cy="47" r="4" fill="#ffa45f" stroke="none"/></g></symbol>
  <symbol id="i-flag" viewBox="0 0 64 64"><g fill="none" stroke="currentColor" stroke-width="4.5" stroke-linecap="round" stroke-linejoin="round"><path d="M14 54V10m1 0h38v26H15" /><path d="M15 10h12v13H15Zm24 0h14v13H39ZM27 23h12v13H27Z" fill="currentColor" stroke="none"/></g></symbol>
  <symbol id="i-jump" viewBox="0 0 64 64"><g fill="none" stroke="currentColor" stroke-width="4.5" stroke-linecap="round" stroke-linejoin="round"><path d="M6 52h10q17 0 25-20l17 20" stroke="#ffad65"/><use href="#i-pickup" x="9" y="-1" width="44" height="44" transform="rotate(-22 30 30)" stroke-width="3"/></g></symbol>
  <symbol id="i-garage" viewBox="0 0 64 64"><g transform="scale(2.6666667)" fill="none" stroke="currentColor" stroke-width="2" stroke-linecap="round" stroke-linejoin="round"><path d="M18 21V10a1 1 0 0 0-1-1H7a1 1 0 0 0-1 1v11" />
  <path d="M22 19a2 2 0 0 1-2 2H4a2 2 0 0 1-2-2V8a2 2 0 0 1 1.132-1.803l7.95-3.974a2 2 0 0 1 1.837 0l7.948 3.974A2 2 0 0 1 22 8z" />
  <path d="M6 13h12" />
  <path d="M6 17h12" /></g></symbol>
  <symbol id="i-wing" viewBox="0 0 64 64"><g fill="none" stroke="currentColor" stroke-width="4.5" stroke-linecap="round" stroke-linejoin="round"><use href="#i-pickup"/><path d="M10 30V16m12 15V16M6 15h24" stroke="#ffa45f"/></g></symbol>
  <symbol id="i-lights" viewBox="0 0 64 64"><g fill="none" stroke="currentColor" stroke-width="4.5" stroke-linecap="round" stroke-linejoin="round"><use href="#i-pickup"/><path d="M31 16h18"/><circle cx="35" cy="13" r="4" fill="#ffd990"/><circle cx="46" cy="13" r="4" fill="#ffd990"/></g></symbol>
  <symbol id="i-pipes" viewBox="0 0 64 64"><g fill="none" stroke="currentColor" stroke-width="4.5" stroke-linecap="round" stroke-linejoin="round"><use href="#i-pickup"/><path d="M24 32V12h-5m-7 22V14H7" stroke="#d5e3d9"/></g></symbol>
<symbol id="i-engine" viewBox="0 0 64 64"><g transform="scale(2.6666667)" fill="none" stroke="currentColor" stroke-width="2" stroke-linecap="round" stroke-linejoin="round"><path d="M7 5h8m-4 0v3M3 11v6m0-3h3M6 10h3l2-2h5l3 4h2v7h-4l-2 2H9l-3-4Z"/><path d="m12 11-2 4h4l-2 4"/></g></symbol>
<symbol id="i-body" viewBox="0 0 64 64"><g transform="scale(2.6666667)" fill="none" stroke="currentColor" stroke-width="2" stroke-linecap="round" stroke-linejoin="round">
  <path d="m21 8-2 2-1.5-3.7A2 2 0 0 0 15.646 5H8.4a2 2 0 0 0-1.903 1.257L5 10 3 8" />
  <path d="M7 14h.01" />
  <path d="M17 14h.01" />
  <rect width="18" height="8" x="3" y="10" rx="2" />
  <path d="M5 18v2" />
  <path d="M19 18v2" />
</g></symbol>
</defs></svg>
